<?xml version="1.0" encoding="UTF-8"?>
<svg id="_レイヤー_1" data-name="レイヤー_1" xmlns="http://www.w3.org/2000/svg" version="1.1" viewBox="0 0 1280 450">
  <!-- Generator: Adobe Illustrator 29.4.0, SVG Export Plug-In . SVG Version: 2.1.0 Build 152)  -->
  <g>
    <path d="M1163.9,111.1c-2.5,8-5,16.4-8.5,24.4-35.8,81.5-67.6,165.5-99.4,249.1-1.5,4-3.5,8-5.5,11.9,0,.5-2,.5-3,0-1,0-2-1-2.5-1.5-.5-2-1-4-.5-6,2.5-8,5-16.4,8-24.4,27.8-73.6,55.7-147.7,87.5-219.7,4-9.9,8-19.9,11.4-29.8.5-1.5-.5-4.5-1.5-5.5-1.5-1-4.5-.5-6,.5-3.5,2-7,4.5-10.4,7.5-13.9,12.4-28.8,24.9-42.3,38.3-33.3,31.8-63.6,65.6-94,99.9-13.9,15.9-28.8,31.8-43.3,47.2-3.5,3.5-8.5,6-13.4,8.5-2.5,1.5-9.4-2-9.9-5.5-.5-4-1.5-8.5-1-12.4,1.5-20.4,7.5-39.8,12.4-59.7,4.5-16.4,10.4-32.3,11.9-49.7,0-.5-1-2.5-1.5-2.5-2-.5-4.5-1.5-6-.5-3.5,2-6.5,5-9.4,8-19.9,19.4-37.3,41.3-53.2,63.6-33.8,46.7-64.1,95.5-91,146.7-4,7-6.5,15.9-13.9,20.9-.5.5-2,.5-3,.5-1-.5-2-1.5-2-2.5,0-3-1-6.5,0-8.9,24.4-76.1,47.2-153.1,82-225.2,12.9-26.8,26.3-53.7,42.8-79,9.4-14.9,20.4-29.3,31.8-43.7,7-9.4,15.9-17.4,26.3-22.9,4.5-2.5,9.4-3.5,14.9-4,8-1.5,14.4,6,12.4,13.9-.5,2-.5,4.5-1.5,6-9.4,16.4-22.4,28.3-38.8,36.8-.5,0-2-.5-2.5-1.5-.5-.5-1-1.5-1-2.5.5-2,1-4,2.5-5.5l21.4-19.4c2.5-3,5-7,7-10.4.5-1.5-1-4-2-5.5,0-.5-2-1-2.5-.5-4,2-8,3.5-11.4,6-13.4,10.4-24.9,23.4-33.8,37.8-11.4,16.9-22.4,33.8-31.8,51.7-29.8,55.2-54.2,113.3-74.1,173.5-2.5,7-4.5,13.4-4,20.9,2.5-1.5,5-2.5,7-5l17.4-26.8c19.4-30.3,39.8-60.2,63.1-88.5,10.4-12.9,22.4-25.4,33.8-37.8,4.5-4.5,10.4-7.5,15.4-10.9,7-4.5,15.9,1,16.4,8.9,1,8.5-.5,16.9-3,25.4-7,25.4-13.4,51.2-19.9,77.1-1,4-1,8.5-1,12.9s.5,2,1,2.5c1,.5,2.5.5,3,0,3.5-2,7.5-4,10.4-7,12.9-14.4,25.4-28.8,38.3-42.8,28.8-31.3,57.7-62.6,87.5-93,16.4-16.9,34.3-31.8,52.2-46.7,5.5-4.5,12.9-7.5,19.4-10.4,4-2,11.4,3.5,11.4,8s.5,6.5-.5,9.4ZM810.5,341.7c0-1.5.5-3,.5-4l-2.5,2.5c.5.5,1,1,2,1.5Z"/>
    <path d="M1185.3,352.7c-20.9,10.9-52.7,12.9-72.1-2.5-8-6.5-11.9-14.4-11.4-24.9,1.5-20.9,10.4-36.3,28.3-47.2,1.5-1,3.5-1.5,6-2,6.5-2,14.4,1,15.9,6,2,5.5-.5,9.9-4,14.4-8,8.5-18.4,13.9-28.8,19.4-7,3.5-8.9,11.9-4.5,18.9,11.9,16.4,29.8,19.4,48.2,14.9,17.4-5,32.8-13.9,47.7-23.9,14.9-9.9,30.3-21.4,30.3-13.4-.5,2-1.5,4-3,5.5-15.9,13.9-33.8,25.9-52.7,34.8ZM1128.6,294.5c1.5,0,3,0,4.5-.5.5,0,2-1,2-1.5-.5-2.5-2-3-4-2-1.5,1-2,2.5-2.5,4Z"/>
  </g>
  <g>
    <path d="M43.4,117.6c6.4,0,11.9,0,16.4.1,4.5,0,8.5.2,11.9.4,3.4.2,6.5.3,9.3.4,2.8,0,5.6.1,8.6.1s5.2,0,7.5-.1c2.2,0,4.7-.2,7.6-.4,2.9-.2,6.3-.3,10.2-.4,4,0,9.1-.1,15.3-.1v5c-2.4,0-4.9.1-7.6.4-2.7.3-5.1.9-7.3,1.8-2.2.9-4.1,2.4-5.5,4.4-1.5,2-2.2,4.7-2.2,8s.2,3.7.7,5.7c.5,1.9,1,3.7,1.5,5.4l34.5,103.3,34.5-97.5c-2-6.3-4-11.5-5.8-15.6-1.8-4.1-3.8-7.4-5.8-9.7-2-2.3-4.4-3.9-7-4.8-2.7-.9-5.9-1.4-9.8-1.4v-5c6.6,0,12,0,16.2.1,4.1,0,7.6.2,10.5.4,2.9.2,5.3.3,7.3.4,2,0,4.3.1,6.9.1s4.9,0,7.5-.1c2.6,0,5.6-.2,9-.4,3.4-.2,7.5-.3,12.3-.4,4.8,0,10.8-.1,18-.1v5c-3.3,0-6.5.2-9.5.6-3,.4-5.7,1.2-7.9,2.5-2.2,1.3-4,3.1-5.2,5.5-1.3,2.4-1.9,5.6-1.9,9.7s.6,7.5,1.7,11.5c1.1,4,2.4,8.2,3.9,12.8l29,87,32.6-100c1.7-5,2.5-9.1,2.5-12.4,0-6.6-2-11-5.9-13.3-4-2.2-10-3.5-18.1-3.9v-5c4.4,0,8,0,10.8.1,2.8,0,5.1.2,7,.3,1.9,0,3.7.2,5.2.3,1.6,0,3.5.1,5.9.1s4.2,0,6.1-.1c1.8,0,3.8-.2,5.9-.3,2.1,0,4.6-.2,7.5-.3,2.9,0,6.4-.1,10.6-.1v5c-4.2,0-7.8.5-10.6,1.4-2.9.9-5.3,2.3-7.3,4.3-2,1.9-3.8,4.4-5.2,7.5-1.5,3-2.9,6.6-4.1,10.6l-52.2,160.5h-9.9l-45.6-140.1-48.9,140.1h-9.9l-55.5-164.9c-2.6-7.5-5.9-12.7-10.1-15.3-4.1-2.7-9.2-4-15.1-4v-5Z"/>
    <path d="M346.4,186.1c-2.8,0-5.7.2-8.7.6-3,.4-5.8,1-8.4,1.8-2.6.8-4.7,1.8-6.4,2.9s-2.5,2.4-2.5,3.9.3,1.6,1,3.6c.6,2,1,4.3,1,6.9s-.9,5.8-2.6,8.1c-1.8,2.3-4.4,3.5-7.9,3.5s-5.8-1.1-8-3.5c-2.2-2.3-3.3-5.7-3.3-10.1s1.7-9,5.2-12.2c3.5-3.1,7.8-5.6,12.8-7.3,5.1-1.7,10.4-2.9,16.2-3.6,5.7-.6,10.7-1,14.9-1,6.3,0,12.4.6,18.5,1.8,6.1,1.2,11.4,3.3,16,6.2,4.6,2.9,8.3,6.9,11.2,11.9,2.9,5,4.3,11.2,4.3,18.8v60.5c0,1.5,0,3.1.3,4.8.2,1.8.6,3.4,1.1,5,.6,1.6,1.4,2.9,2.6,3.9,1.2,1,2.9,1.5,5.1,1.5s3.6-.7,4.8-2.2c1.2-1.5,2.3-2.9,3.2-4.4l3.6,1.9c-.4.9-1.1,2.3-2.2,4-1.1,1.8-2.6,3.5-4.6,5.2-1.9,1.8-4.4,3.3-7.3,4.7-2.9,1.4-6.4,2.1-10.2,2.1-7,0-12.5-1.4-16.4-4.3-4-2.9-7-7-9-12.6-6.4,5.3-12.8,9.5-19.1,12.4-6.3,2.9-13.7,4.4-22.4,4.4s-8-.6-11.7-1.7c-3.8-1.1-7.1-2.8-10.1-5.1-2.9-2.3-5.3-5.2-7-8.7-1.8-3.5-2.6-7.6-2.6-12.4s2.1-12.3,6.2-17.1c4.1-4.8,9.2-8.9,15.1-12.3,5.9-3.4,12.1-6.3,18.5-8.7,6.4-2.4,12-4.6,16.6-6.6,5-2.2,8.8-4,11.5-5.5,2.7-1.5,4-3,4-4.7v-8c0-2.2-.1-4.9-.4-8.1-.3-3.2-1.2-6.4-2.6-9.4-1.5-3-3.8-5.6-6.9-7.7-3.1-2.1-7.6-3.2-13.3-3.2ZM369.6,232.8c-5.3,2.8-10.5,5.2-15.5,7.4-5,2.1-9.4,4.6-13.3,7.4-3.9,2.8-7,6.2-9.4,10.1-2.4,4-3.6,9.2-3.6,15.7s.3,4.8,1,7.1c.6,2.3,1.6,4.4,2.9,6.4,1.3,1.9,2.9,3.5,4.8,4.7,1.9,1.2,4.2,1.8,6.8,1.8,5.2,0,10-1.2,14.5-3.6,4.5-2.4,8.4-5.4,11.7-8.9v-48Z"/>
    <path d="M471.8,305.7c-13.6,0-23.7-3.1-30.1-9.3-6.4-6.2-9.7-14.8-9.7-26v-81.3h-15.7v-5c3.9-1.3,7.8-3.1,11.7-5.4,4-2.3,7.6-4.9,11-7.7,3.4-2.9,6.5-6,9.3-9.5,2.8-3.5,5-7.2,6.6-11.1h7.2v32.3h28.7v6.4h-28.7v72.2c0,4.3,0,8.5.3,12.6.2,4.2.8,7.9,1.9,11.2s2.9,6,5.4,8.1c2.5,2,5.9,3.1,10.4,3.1s8.5-1.1,11.2-3.2c2.7-2.1,5-4.7,7-7.9l3.6,3c-2.2,4.2-5.8,8.2-10.8,11.9-5,3.7-11.4,5.5-19.3,5.5Z"/>
    <path d="M507.5,245.2c0-9.2,1.7-17.8,5.2-25.8,3.5-8,8.2-14.9,14.2-20.7,6-5.8,13-10.4,21.1-13.7,8.1-3.3,16.9-5,26.2-5s5.6.3,9.7,1c4,.6,8,1.8,11.9,3.3,3.9,1.6,7.2,3.8,10.1,6.6,2.9,2.9,4.3,6.5,4.3,10.9s-.9,5.6-2.6,8c-1.8,2.4-4.7,3.6-8.7,3.6s-5.2-1.1-7.2-3.5c-2-2.3-3-5.3-3-9s.1-3,.4-4.7c.3-1.7.4-2.6.4-2.8,0-1.1-.5-2.1-1.5-3-1-.9-2.3-1.7-3.7-2.2-1.5-.6-3.1-1-4.8-1.4-1.8-.4-3.5-.6-5.1-.6-6.4,0-11.8,1.7-16.2,5-4.3,3.3-7.8,7.6-10.5,13-2.7,5.3-4.6,11.4-5.7,18.2-1.1,6.8-1.7,13.7-1.7,20.7,0,17.3,3.1,30.6,9.3,39.9,6.2,9.3,14.5,14,25,14s8.5-.5,12.3-1.5c3.8-1,7.2-2.3,10.2-4,3-1.7,5.7-3.5,7.9-5.4,2.2-1.9,4.1-3.8,5.8-5.7l3,2.8c-5.9,7.7-13.1,13.4-21.5,17-8.5,3.6-16.9,5.4-25.1,5.4s-15.7-1.3-22.9-4c-7.2-2.7-13.5-6.6-18.9-11.7-5.4-5.2-9.8-11.5-13-18.9-3.2-7.5-4.8-16.1-4.8-25.8Z"/>
    <path d="M672.1,290.3c.9,2,2.2,3.6,3.9,4.7,1.7,1.1,3.6,1.8,5.8,2.1s4.7.4,7.5.4v5c-4.4,0-8.2,0-11.5-.1-3.2,0-6.1-.2-8.7-.3-2.6,0-5-.2-7.2-.3-2.2,0-4.5-.1-6.9-.1s-4.9,0-7,.1c-2.1,0-4.3.2-6.6.3-2.3,0-5,.2-8,.3-3,0-6.8.1-11.2.1v-5c2.8,0,5.2-.1,7.5-.4s4.1-1,5.8-2.1c1.7-1.1,2.9-2.7,3.9-4.7.9-2,1.4-4.9,1.4-8.6v-138.4c0-3.5-.5-6.3-1.4-8.4-.9-2.1-2.2-3.7-3.9-4.8-1.7-1.1-3.6-1.8-5.8-2.1-2.2-.3-4.7-.4-7.5-.4v-5c3.3-.2,7.1-.6,11.3-1.2,4.2-.6,8.5-1.4,12.8-2.2,4.3-.8,8.6-1.8,12.8-2.9,4.2-1.1,8-2.2,11.3-3.3v87c4.6-6.6,9.9-11.6,16-15.1,6.1-3.4,13.8-5.1,23.2-5.1s17.7,1.9,23.3,5.7c5.6,3.8,9.8,8.3,12.7,13.7,2.9,5.3,4.6,10.8,5.4,16.4.7,5.6,1.1,10.2,1.1,13.7v52.5c0,3.7.5,6.5,1.4,8.6.9,2,2.2,3.6,3.9,4.7,1.7,1.1,3.6,1.8,5.8,2.1s4.7.4,7.5.4v5c-4.4,0-8.2,0-11.5-.1-3.2,0-6.1-.2-8.7-.3-2.6,0-5-.2-7.2-.3-2.2,0-4.5-.1-6.9-.1s-4.9,0-7,.1c-2.1,0-4.3.2-6.6.3-2.3,0-5,.2-8,.3-3,0-6.8.1-11.2.1v-5c2.8,0,5.2-.1,7.5-.4s4.1-1,5.8-2.1c1.7-1.1,2.9-2.7,3.9-4.7.9-2,1.4-4.9,1.4-8.6v-52.8c0-2.2-.1-5.5-.4-9.9s-1.1-8.8-2.5-13.3c-1.4-4.4-3.5-8.3-6.5-11.6-2.9-3.3-7.2-5-12.7-5s-7.3.9-10.8,2.8c-3.5,1.8-6.6,4.4-9.4,7.6-2.8,3.2-5,7-6.6,11.5-1.7,4.4-2.5,9.3-2.5,14.6v56.1c0,3.7.5,6.5,1.4,8.6Z"/>
  </g>
</svg>