<?xml version="1.0" encoding="UTF-8"?>
<svg id="_レイヤー_1" data-name="レイヤー_1" xmlns="http://www.w3.org/2000/svg" version="1.1" viewBox="0 0 1972.2 254.2">
  <!-- Generator: Adobe Illustrator 29.6.1, SVG Export Plug-In . SVG Version: 2.1.1 Build 9)  -->
  <defs>
    <style>
      .st0 {
        fill: none;
        stroke: #fff;
        stroke-miterlimit: 10;
        stroke-width: 1.4px;
      }
    </style>
  </defs>
  <g>
    <path class="st0" d="M464.6,56.5c-1.5,4.7-3,9.8-5,14.5-21.4,48.7-40.4,98.8-59.4,148.7-.9,2.4-2.1,4.7-3.3,7.1,0,.3-1.2.3-1.8,0-.6,0-1.2-.6-1.5-.9-.3-1.2-.6-2.4-.3-3.6,1.5-4.7,3-9.8,4.8-14.5,16.6-43.9,33.2-88.2,52.2-131.2,2.4-5.9,4.8-11.9,6.8-17.8.3-.9-.3-2.7-.9-3.3-.9-.6-2.7-.3-3.6.3-2.1,1.2-4.2,2.7-6.2,4.5-8.3,7.4-17.2,14.8-25.2,22.9-19.9,19-38,39.2-56.1,59.7-8.3,9.5-17.2,19-25.8,28.2-2.1,2.1-5,3.6-8,5-1.5.9-5.6-1.2-5.9-3.3-.3-2.4-.9-5-.6-7.4.9-12.2,4.5-23.7,7.4-35.6,2.7-9.8,6.2-19.3,7.1-29.7,0-.3-.6-1.5-.9-1.5-1.2-.3-2.7-.9-3.6-.3-2.1,1.2-3.9,3-5.6,4.7-11.9,11.6-22.3,24.6-31.8,38-20.2,27.9-38.3,57-54.3,87.6-2.4,4.2-3.9,9.5-8.3,12.5-.3.3-1.2.3-1.8.3-.6-.3-1.2-.9-1.2-1.5,0-1.8-.6-3.9,0-5.3,14.5-45.4,28.2-91.4,49-134.5,7.7-16,15.7-32.1,25.5-47.2,5.6-8.9,12.2-17.5,19-26.1,4.2-5.6,9.5-10.4,15.7-13.7,2.7-1.5,5.6-2.1,8.9-2.4,4.7-.9,8.6,3.6,7.4,8.3-.3,1.2-.3,2.7-.9,3.6-5.6,9.8-13.4,16.9-23.2,22-.3,0-1.2-.3-1.5-.9-.3-.3-.6-.9-.6-1.5.3-1.2.6-2.4,1.5-3.3l12.8-11.6c1.5-1.8,3-4.2,4.2-6.2.3-.9-.6-2.4-1.2-3.3,0-.3-1.2-.6-1.5-.3-2.4,1.2-4.8,2.1-6.8,3.6-8,6.2-14.8,14-20.2,22.6-6.8,10.1-13.4,20.2-19,30.9-17.8,32.9-32.4,67.7-44.2,103.6-1.5,4.2-2.7,8-2.4,12.5,1.5-.9,3-1.5,4.2-3l10.4-16c11.6-18.1,23.7-35.9,37.7-52.8,6.2-7.7,13.4-15.1,20.2-22.6,2.7-2.7,6.2-4.5,9.2-6.5,4.2-2.7,9.5.6,9.8,5.3.6,5-.3,10.1-1.8,15.1-4.2,15.1-8,30.6-11.9,46-.6,2.4-.6,5-.6,7.7s.3,1.2.6,1.5c.6.3,1.5.3,1.8,0,2.1-1.2,4.5-2.4,6.2-4.2,7.7-8.6,15.1-17.2,22.9-25.5,17.2-18.7,34.4-37.4,52.2-55.5,9.8-10.1,20.5-19,31.2-27.9,3.3-2.7,7.7-4.5,11.6-6.2,2.4-1.2,6.8,2.1,6.8,4.7s.3,3.9-.3,5.6ZM253.6,194.2c0-.9.3-1.8.3-2.4l-1.5,1.5c.3.3.6.6,1.2.9Z"/>
    <path class="st0" d="M486.5,216c-12.5,8.7-31.5,10.3-43-2-4.7-5.1-7.1-11.5-6.8-19.8.9-16.6,6.2-28.8,16.9-37.5.9-.8,2.1-1.2,3.6-1.6,3.9-1.6,8.6.8,9.5,4.7,1.2,4.3-.3,7.9-2.4,11.5-4.8,6.7-11,11.1-17.2,15.4-4.2,2.8-5.3,9.5-2.7,15,7.1,13,17.8,15.4,28.8,11.9,10.4-4,19.6-11.1,28.5-19,8.9-7.9,18.1-17,18.1-10.7-.3,1.6-.9,3.2-1.8,4.3-9.5,11.1-20.2,20.5-31.5,27.7ZM452.7,169.8c.9,0,1.8,0,2.7-.4.3,0,1.2-.8,1.2-1.2-.3-2-1.2-2.4-2.4-1.6-.9.8-1.2,2-1.5,3.2Z"/>
    <path class="st0" d="M13.8,62.8c5.9,0,10.9,0,15,.1,4.1,0,7.7.2,10.8.4,3.1.2,5.9.3,8.5.4,2.5,0,5.1.1,7.8.1s4.8,0,6.8-.1c2,0,4.3-.2,6.9-.4,2.6-.2,5.7-.3,9.3-.4,3.6,0,8.3-.1,14-.1v4.5c-2.2,0-4.5.1-6.9.4-2.4.3-4.7.8-6.7,1.6-2,.8-3.7,2.2-5,4-1.3,1.9-2,4.3-2,7.3s.2,3.4.6,5.2c.4,1.8.9,3.4,1.4,4.9l31.5,94.4,31.5-89.1c-1.8-5.7-3.6-10.5-5.3-14.3-1.7-3.8-3.5-6.7-5.3-8.8-1.8-2.1-4-3.6-6.4-4.4-2.4-.8-5.4-1.3-9-1.3v-4.5c6.1,0,11,0,14.8.1,3.8,0,7,.2,9.6.4,2.6.2,4.8.3,6.7.4,1.8,0,4,.1,6.3.1s4.5,0,6.8-.1c2.4,0,5.1-.2,8.2-.4,3.1-.2,6.9-.3,11.2-.4,4.4,0,9.8-.1,16.4-.1v4.5c-3,0-5.9.2-8.7.5-2.8.3-5.2,1.1-7.2,2.3-2,1.2-3.6,2.9-4.8,5-1.2,2.2-1.8,5.1-1.8,8.8s.5,6.9,1.5,10.5c1,3.6,2.2,7.5,3.5,11.7l26.5,79.5,29.8-91.3c1.5-4.5,2.3-8.3,2.3-11.4,0-6.1-1.8-10.1-5.4-12.1-3.6-2-9.1-3.2-16.5-3.5v-4.5c4,0,7.3,0,9.8.1,2.5,0,4.7.2,6.4.3,1.8,0,3.4.2,4.8.3,1.4,0,3.2.1,5.4.1s3.9,0,5.6-.1c1.7,0,3.5-.2,5.4-.3,1.9,0,4.2-.2,6.8-.3,2.6,0,5.8-.1,9.7-.1v4.5c-3.9,0-7.1.4-9.7,1.3-2.6.8-4.8,2.1-6.7,3.9-1.8,1.8-3.4,4-4.8,6.8-1.3,2.8-2.6,6-3.8,9.7l-47.7,146.6h-9.1l-41.6-127.9-44.7,127.9h-9.1L36.7,85c-2.4-6.9-5.4-11.6-9.2-14-3.8-2.4-8.4-3.7-13.7-3.7v-4.5Z"/>
  </g>
  <g>
    <path class="st0" d="M944.1,56.5c-1.5,4.7-3,9.8-5,14.5-21.4,48.7-40.4,98.8-59.4,148.7-.9,2.4-2.1,4.7-3.3,7.1,0,.3-1.2.3-1.8,0-.6,0-1.2-.6-1.5-.9-.3-1.2-.6-2.4-.3-3.6,1.5-4.7,3-9.8,4.8-14.5,16.6-43.9,33.2-88.2,52.2-131.2,2.4-5.9,4.8-11.9,6.8-17.8.3-.9-.3-2.7-.9-3.3-.9-.6-2.7-.3-3.6.3-2.1,1.2-4.2,2.7-6.2,4.5-8.3,7.4-17.2,14.8-25.2,22.9-19.9,19-38,39.2-56.1,59.7-8.3,9.5-17.2,19-25.8,28.2-2.1,2.1-5,3.6-8,5-1.5.9-5.6-1.2-5.9-3.3-.3-2.4-.9-5-.6-7.4.9-12.2,4.5-23.7,7.4-35.6,2.7-9.8,6.2-19.3,7.1-29.7,0-.3-.6-1.5-.9-1.5-1.2-.3-2.7-.9-3.6-.3-2.1,1.2-3.9,3-5.6,4.7-11.9,11.6-22.3,24.6-31.8,38-20.2,27.9-38.3,57-54.3,87.6-2.4,4.2-3.9,9.5-8.3,12.5-.3.3-1.2.3-1.8.3-.6-.3-1.2-.9-1.2-1.5,0-1.8-.6-3.9,0-5.3,14.5-45.4,28.2-91.4,49-134.5,7.7-16,15.7-32.1,25.5-47.2,5.6-8.9,12.2-17.5,19-26.1,4.2-5.6,9.5-10.4,15.7-13.7,2.7-1.5,5.6-2.1,8.9-2.4,4.7-.9,8.6,3.6,7.4,8.3-.3,1.2-.3,2.7-.9,3.6-5.6,9.8-13.4,16.9-23.2,22-.3,0-1.2-.3-1.5-.9-.3-.3-.6-.9-.6-1.5.3-1.2.6-2.4,1.5-3.3l12.8-11.6c1.5-1.8,3-4.2,4.2-6.2.3-.9-.6-2.4-1.2-3.3,0-.3-1.2-.6-1.5-.3-2.4,1.2-4.8,2.1-6.8,3.6-8,6.2-14.8,14-20.2,22.6-6.8,10.1-13.4,20.2-19,30.9-17.8,32.9-32.4,67.7-44.2,103.6-1.5,4.2-2.7,8-2.4,12.5,1.5-.9,3-1.5,4.2-3l10.4-16c11.6-18.1,23.7-35.9,37.7-52.8,6.2-7.7,13.4-15.1,20.2-22.6,2.7-2.7,6.2-4.5,9.2-6.5,4.2-2.7,9.5.6,9.8,5.3.6,5-.3,10.1-1.8,15.1-4.2,15.1-8,30.6-11.9,46-.6,2.4-.6,5-.6,7.7s.3,1.2.6,1.5c.6.3,1.5.3,1.8,0,2.1-1.2,4.5-2.4,6.2-4.2,7.7-8.6,15.1-17.2,22.9-25.5,17.2-18.7,34.4-37.4,52.2-55.5,9.8-10.1,20.5-19,31.2-27.9,3.3-2.7,7.7-4.5,11.6-6.2,2.4-1.2,6.8,2.1,6.8,4.7s.3,3.9-.3,5.6ZM733.1,194.2c0-.9.3-1.8.3-2.4l-1.5,1.5c.3.3.6.6,1.2.9Z"/>
    <path class="st0" d="M966,216c-12.5,8.7-31.5,10.3-43-2-4.7-5.1-7.1-11.5-6.8-19.8.9-16.6,6.2-28.8,16.9-37.5.9-.8,2.1-1.2,3.6-1.6,3.9-1.6,8.6.8,9.5,4.7,1.2,4.3-.3,7.9-2.4,11.5-4.8,6.7-11,11.1-17.2,15.4-4.2,2.8-5.3,9.5-2.7,15,7.1,13,17.8,15.4,28.8,11.9,10.4-4,19.6-11.1,28.5-19,8.9-7.9,18.1-17,18.1-10.7-.3,1.6-.9,3.2-1.8,4.3-9.5,11.1-20.2,20.5-31.5,27.7ZM932.1,169.8c.9,0,1.8,0,2.7-.4.3,0,1.2-.8,1.2-1.2-.3-2-1.2-2.4-2.4-1.6-.9.8-1.2,2-1.5,3.2Z"/>
    <path class="st0" d="M493.2,62.8c5.9,0,10.9,0,15,.1,4.1,0,7.7.2,10.8.4,3.1.2,5.9.3,8.5.4,2.5,0,5.1.1,7.8.1s4.8,0,6.8-.1c2,0,4.3-.2,6.9-.4,2.6-.2,5.7-.3,9.3-.4,3.6,0,8.3-.1,14-.1v4.5c-2.2,0-4.5.1-6.9.4-2.4.3-4.7.8-6.7,1.6-2,.8-3.7,2.2-5,4-1.3,1.9-2,4.3-2,7.3s.2,3.4.6,5.2c.4,1.8.9,3.4,1.4,4.9l31.5,94.4,31.5-89.1c-1.8-5.7-3.6-10.5-5.3-14.3-1.7-3.8-3.5-6.7-5.3-8.8-1.8-2.1-4-3.6-6.4-4.4-2.4-.8-5.4-1.3-9-1.3v-4.5c6.1,0,11,0,14.8.1,3.8,0,7,.2,9.6.4,2.6.2,4.8.3,6.7.4,1.8,0,4,.1,6.3.1s4.5,0,6.8-.1c2.4,0,5.1-.2,8.2-.4,3.1-.2,6.9-.3,11.2-.4,4.4,0,9.8-.1,16.4-.1v4.5c-3,0-5.9.2-8.7.5-2.8.3-5.2,1.1-7.2,2.3-2,1.2-3.6,2.9-4.8,5-1.2,2.2-1.8,5.1-1.8,8.8s.5,6.9,1.5,10.5c1,3.6,2.2,7.5,3.5,11.7l26.5,79.5,29.8-91.3c1.5-4.5,2.3-8.3,2.3-11.4,0-6.1-1.8-10.1-5.4-12.1-3.6-2-9.1-3.2-16.5-3.5v-4.5c4,0,7.3,0,9.8.1,2.5,0,4.7.2,6.4.3,1.8,0,3.4.2,4.8.3,1.4,0,3.2.1,5.4.1s3.9,0,5.6-.1c1.7,0,3.5-.2,5.4-.3,1.9,0,4.2-.2,6.8-.3,2.6,0,5.8-.1,9.7-.1v4.5c-3.9,0-7.1.4-9.7,1.3-2.6.8-4.8,2.1-6.7,3.9-1.8,1.8-3.4,4-4.8,6.8-1.3,2.8-2.6,6-3.8,9.7l-47.7,146.6h-9.1l-41.6-127.9-44.7,127.9h-9.1l-50.7-150.6c-2.4-6.9-5.4-11.6-9.2-14-3.8-2.4-8.4-3.7-13.7-3.7v-4.5Z"/>
  </g>
  <g>
    <path class="st0" d="M1423.6,56.5c-1.5,4.7-3,9.8-5,14.5-21.4,48.7-40.4,98.8-59.4,148.7-.9,2.4-2.1,4.7-3.3,7.1,0,.3-1.2.3-1.8,0-.6,0-1.2-.6-1.5-.9-.3-1.2-.6-2.4-.3-3.6,1.5-4.7,3-9.8,4.8-14.5,16.6-43.9,33.2-88.2,52.2-131.2,2.4-5.9,4.8-11.9,6.8-17.8.3-.9-.3-2.7-.9-3.3-.9-.6-2.7-.3-3.6.3-2.1,1.2-4.2,2.7-6.2,4.5-8.3,7.4-17.2,14.8-25.2,22.9-19.9,19-38,39.2-56.1,59.7-8.3,9.5-17.2,19-25.8,28.2-2.1,2.1-5,3.6-8,5-1.5.9-5.6-1.2-5.9-3.3-.3-2.4-.9-5-.6-7.4.9-12.2,4.5-23.7,7.4-35.6,2.7-9.8,6.2-19.3,7.1-29.7,0-.3-.6-1.5-.9-1.5-1.2-.3-2.7-.9-3.6-.3-2.1,1.2-3.9,3-5.6,4.7-11.9,11.6-22.3,24.6-31.8,38-20.2,27.9-38.3,57-54.3,87.6-2.4,4.2-3.9,9.5-8.3,12.5-.3.3-1.2.3-1.8.3-.6-.3-1.2-.9-1.2-1.5,0-1.8-.6-3.9,0-5.3,14.5-45.4,28.2-91.4,49-134.5,7.7-16,15.7-32.1,25.5-47.2,5.6-8.9,12.2-17.5,19-26.1,4.2-5.6,9.5-10.4,15.7-13.7,2.7-1.5,5.6-2.1,8.9-2.4,4.7-.9,8.6,3.6,7.4,8.3-.3,1.2-.3,2.7-.9,3.6-5.6,9.8-13.4,16.9-23.2,22-.3,0-1.2-.3-1.5-.9-.3-.3-.6-.9-.6-1.5.3-1.2.6-2.4,1.5-3.3l12.8-11.6c1.5-1.8,3-4.2,4.2-6.2.3-.9-.6-2.4-1.2-3.3,0-.3-1.2-.6-1.5-.3-2.4,1.2-4.8,2.1-6.8,3.6-8,6.2-14.8,14-20.2,22.6-6.8,10.1-13.4,20.2-19,30.9-17.8,32.9-32.4,67.7-44.2,103.6-1.5,4.2-2.7,8-2.4,12.5,1.5-.9,3-1.5,4.2-3l10.4-16c11.6-18.1,23.7-35.9,37.7-52.8,6.2-7.7,13.4-15.1,20.2-22.6,2.7-2.7,6.2-4.5,9.2-6.5,4.2-2.7,9.5.6,9.8,5.3.6,5-.3,10.1-1.8,15.1-4.2,15.1-8,30.6-11.9,46-.6,2.4-.6,5-.6,7.7s.3,1.2.6,1.5c.6.3,1.5.3,1.8,0,2.1-1.2,4.5-2.4,6.2-4.2,7.7-8.6,15.1-17.2,22.9-25.5,17.2-18.7,34.4-37.4,52.2-55.5,9.8-10.1,20.5-19,31.2-27.9,3.3-2.7,7.7-4.5,11.6-6.2,2.4-1.2,6.8,2.1,6.8,4.7s.3,3.9-.3,5.6ZM1212.5,194.2c0-.9.3-1.8.3-2.4l-1.5,1.5c.3.3.6.6,1.2.9Z"/>
    <path class="st0" d="M1445.5,216c-12.5,8.7-31.5,10.3-43-2-4.7-5.1-7.1-11.5-6.8-19.8.9-16.6,6.2-28.8,16.9-37.5.9-.8,2.1-1.2,3.6-1.6,3.9-1.6,8.6.8,9.5,4.7,1.2,4.3-.3,7.9-2.4,11.5-4.8,6.7-11,11.1-17.2,15.4-4.2,2.8-5.3,9.5-2.7,15,7.1,13,17.8,15.4,28.8,11.9,10.4-4,19.6-11.1,28.5-19,8.9-7.9,18.1-17,18.1-10.7-.3,1.6-.9,3.2-1.8,4.3-9.5,11.1-20.2,20.5-31.5,27.7ZM1411.6,169.8c.9,0,1.8,0,2.7-.4.3,0,1.2-.8,1.2-1.2-.3-2-1.2-2.4-2.4-1.6-.9.8-1.2,2-1.5,3.2Z"/>
    <path class="st0" d="M972.7,62.8c5.9,0,10.9,0,15,.1,4.1,0,7.7.2,10.8.4,3.1.2,5.9.3,8.5.4,2.5,0,5.1.1,7.8.1s4.8,0,6.8-.1c2,0,4.3-.2,6.9-.4,2.6-.2,5.7-.3,9.3-.4,3.6,0,8.3-.1,14-.1v4.5c-2.2,0-4.5.1-6.9.4-2.4.3-4.7.8-6.7,1.6-2,.8-3.7,2.2-5,4-1.3,1.9-2,4.3-2,7.3s.2,3.4.6,5.2c.4,1.8.9,3.4,1.4,4.9l31.5,94.4,31.5-89.1c-1.8-5.7-3.6-10.5-5.3-14.3-1.7-3.8-3.5-6.7-5.3-8.8-1.8-2.1-4-3.6-6.4-4.4-2.4-.8-5.4-1.3-9-1.3v-4.5c6.1,0,11,0,14.8.1,3.8,0,7,.2,9.6.4,2.6.2,4.8.3,6.7.4,1.8,0,4,.1,6.3.1s4.5,0,6.8-.1c2.4,0,5.1-.2,8.2-.4,3.1-.2,6.9-.3,11.2-.4,4.4,0,9.8-.1,16.4-.1v4.5c-3,0-5.9.2-8.7.5-2.8.3-5.2,1.1-7.2,2.3-2,1.2-3.6,2.9-4.8,5-1.2,2.2-1.8,5.1-1.8,8.8s.5,6.9,1.5,10.5c1,3.6,2.2,7.5,3.5,11.7l26.5,79.5,29.8-91.3c1.5-4.5,2.3-8.3,2.3-11.4,0-6.1-1.8-10.1-5.4-12.1-3.6-2-9.1-3.2-16.5-3.5v-4.5c4,0,7.3,0,9.8.1,2.5,0,4.7.2,6.4.3,1.8,0,3.4.2,4.8.3,1.4,0,3.2.1,5.4.1s3.9,0,5.6-.1c1.7,0,3.5-.2,5.4-.3,1.9,0,4.2-.2,6.8-.3,2.6,0,5.8-.1,9.7-.1v4.5c-3.9,0-7.1.4-9.7,1.3-2.6.8-4.8,2.1-6.7,3.9-1.8,1.8-3.4,4-4.8,6.8-1.3,2.8-2.6,6-3.8,9.7l-47.7,146.6h-9.1l-41.6-127.9-44.7,127.9h-9.1l-50.7-150.6c-2.4-6.9-5.4-11.6-9.2-14-3.8-2.4-8.4-3.7-13.7-3.7v-4.5Z"/>
  </g>
  <g>
    <path class="st0" d="M1903.1,56.5c-1.5,4.7-3,9.8-5,14.5-21.4,48.7-40.4,98.8-59.4,148.7-.9,2.4-2.1,4.7-3.3,7.1,0,.3-1.2.3-1.8,0-.6,0-1.2-.6-1.5-.9-.3-1.2-.6-2.4-.3-3.6,1.5-4.7,3-9.8,4.8-14.5,16.6-43.9,33.2-88.2,52.2-131.2,2.4-5.9,4.8-11.9,6.8-17.8.3-.9-.3-2.7-.9-3.3-.9-.6-2.7-.3-3.6.3-2.1,1.2-4.2,2.7-6.2,4.5-8.3,7.4-17.2,14.8-25.2,22.9-19.9,19-38,39.2-56.1,59.7-8.3,9.5-17.2,19-25.8,28.2-2.1,2.1-5,3.6-8,5-1.5.9-5.6-1.2-5.9-3.3-.3-2.4-.9-5-.6-7.4.9-12.2,4.5-23.7,7.4-35.6,2.7-9.8,6.2-19.3,7.1-29.7,0-.3-.6-1.5-.9-1.5-1.2-.3-2.7-.9-3.6-.3-2.1,1.2-3.9,3-5.6,4.7-11.9,11.6-22.3,24.6-31.8,38-20.2,27.9-38.3,57-54.3,87.6-2.4,4.2-3.9,9.5-8.3,12.5-.3.3-1.2.3-1.8.3-.6-.3-1.2-.9-1.2-1.5,0-1.8-.6-3.9,0-5.3,14.5-45.4,28.2-91.4,49-134.5,7.7-16,15.7-32.1,25.5-47.2,5.6-8.9,12.2-17.5,19-26.1,4.2-5.6,9.5-10.4,15.7-13.7,2.7-1.5,5.6-2.1,8.9-2.4,4.7-.9,8.6,3.6,7.4,8.3-.3,1.2-.3,2.7-.9,3.6-5.6,9.8-13.4,16.9-23.2,22-.3,0-1.2-.3-1.5-.9-.3-.3-.6-.9-.6-1.5.3-1.2.6-2.4,1.5-3.3l12.8-11.6c1.5-1.8,3-4.2,4.2-6.2.3-.9-.6-2.4-1.2-3.3,0-.3-1.2-.6-1.5-.3-2.4,1.2-4.8,2.1-6.8,3.6-8,6.2-14.8,14-20.2,22.6-6.8,10.1-13.4,20.2-19,30.9-17.8,32.9-32.4,67.7-44.2,103.6-1.5,4.2-2.7,8-2.4,12.5,1.5-.9,3-1.5,4.2-3l10.4-16c11.6-18.1,23.7-35.9,37.7-52.8,6.2-7.7,13.4-15.1,20.2-22.6,2.7-2.7,6.2-4.5,9.2-6.5,4.2-2.7,9.5.6,9.8,5.3.6,5-.3,10.1-1.8,15.1-4.2,15.1-8,30.6-11.9,46-.6,2.4-.6,5-.6,7.7s.3,1.2.6,1.5c.6.3,1.5.3,1.8,0,2.1-1.2,4.5-2.4,6.2-4.2,7.7-8.6,15.1-17.2,22.9-25.5,17.2-18.7,34.4-37.4,52.2-55.5,9.8-10.1,20.5-19,31.2-27.9,3.3-2.7,7.7-4.5,11.6-6.2,2.4-1.2,6.8,2.1,6.8,4.7s.3,3.9-.3,5.6ZM1692,194.2c0-.9.3-1.8.3-2.4l-1.5,1.5c.3.3.6.6,1.2.9Z"/>
    <path class="st0" d="M1924.9,216c-12.5,8.7-31.5,10.3-43-2-4.7-5.1-7.1-11.5-6.8-19.8.9-16.6,6.2-28.8,16.9-37.5.9-.8,2.1-1.2,3.6-1.6,3.9-1.6,8.6.8,9.5,4.7,1.2,4.3-.3,7.9-2.4,11.5-4.8,6.7-11,11.1-17.2,15.4-4.2,2.8-5.3,9.5-2.7,15,7.1,13,17.8,15.4,28.8,11.9,10.4-4,19.6-11.1,28.5-19,8.9-7.9,18.1-17,18.1-10.7-.3,1.6-.9,3.2-1.8,4.3-9.5,11.1-20.2,20.5-31.5,27.7ZM1891.1,169.8c.9,0,1.8,0,2.7-.4.3,0,1.2-.8,1.2-1.2-.3-2-1.2-2.4-2.4-1.6-.9.8-1.2,2-1.5,3.2Z"/>
    <path class="st0" d="M1452.2,62.8c5.9,0,10.9,0,15,.1,4.1,0,7.7.2,10.8.4,3.1.2,5.9.3,8.5.4,2.5,0,5.1.1,7.8.1s4.8,0,6.8-.1c2,0,4.3-.2,6.9-.4,2.6-.2,5.7-.3,9.3-.4,3.6,0,8.3-.1,14-.1v4.5c-2.2,0-4.5.1-6.9.4-2.4.3-4.7.8-6.7,1.6-2,.8-3.7,2.2-5,4-1.3,1.9-2,4.3-2,7.3s.2,3.4.6,5.2c.4,1.8.9,3.4,1.4,4.9l31.5,94.4,31.5-89.1c-1.8-5.7-3.6-10.5-5.3-14.3-1.7-3.8-3.5-6.7-5.3-8.8-1.8-2.1-4-3.6-6.4-4.4-2.4-.8-5.4-1.3-9-1.3v-4.5c6.1,0,11,0,14.8.1,3.8,0,7,.2,9.6.4,2.6.2,4.8.3,6.7.4,1.8,0,4,.1,6.3.1s4.5,0,6.8-.1c2.4,0,5.1-.2,8.2-.4,3.1-.2,6.9-.3,11.2-.4,4.4,0,9.8-.1,16.4-.1v4.5c-3,0-5.9.2-8.7.5-2.8.3-5.2,1.1-7.2,2.3-2,1.2-3.6,2.9-4.8,5-1.2,2.2-1.8,5.1-1.8,8.8s.5,6.9,1.5,10.5c1,3.6,2.2,7.5,3.5,11.7l26.5,79.5,29.8-91.3c1.5-4.5,2.3-8.3,2.3-11.4,0-6.1-1.8-10.1-5.4-12.1-3.6-2-9.1-3.2-16.5-3.5v-4.5c4,0,7.3,0,9.8.1,2.5,0,4.7.2,6.4.3,1.8,0,3.4.2,4.8.3,1.4,0,3.2.1,5.4.1s3.9,0,5.6-.1c1.7,0,3.5-.2,5.4-.3,1.9,0,4.2-.2,6.8-.3,2.6,0,5.8-.1,9.7-.1v4.5c-3.9,0-7.1.4-9.7,1.3-2.6.8-4.8,2.1-6.7,3.9-1.8,1.8-3.4,4-4.8,6.8-1.3,2.8-2.6,6-3.8,9.7l-47.7,146.6h-9.1l-41.6-127.9-44.7,127.9h-9.1l-50.7-150.6c-2.4-6.9-5.4-11.6-9.2-14-3.8-2.4-8.4-3.7-13.7-3.7v-4.5Z"/>
  </g>
</svg>